<svg width="18" height="14" viewBox="0 0 18 14" fill="none" xmlns="http://www.w3.org/2000/svg">
<g id="Arrow - Right">
<path id="Stroke 1" d="M0.749901 6.99976C0.749901 6.62006 1.03205 6.30626 1.39813 6.2566L1.4999 6.24976L16.4999 6.24976C16.9141 6.24976 17.2499 6.58554 17.2499 6.99976C17.2499 7.37945 16.9677 7.69325 16.6017 7.74291L16.4999 7.74976L1.4999 7.74976C1.08569 7.74976 0.749901 7.41397 0.749901 6.99976Z" fill="white"/>
<path id="Stroke 3" d="M9.92092 1.50688C9.62739 1.21462 9.62637 0.73975 9.91863 0.446227C10.1843 0.179388 10.6009 0.154285 10.895 0.371507L10.9793 0.443943L17.0293 6.46794C17.2969 6.73443 17.3213 7.15254 17.1023 7.44662L17.0293 7.53084L10.9793 13.5558C10.6858 13.8481 10.211 13.8471 9.91868 13.5536C9.65296 13.2868 9.62962 12.8701 9.84808 12.577L9.92087 12.493L15.4369 6.99911L9.92092 1.50688Z" fill="white"/>
</g>
</svg>
