<svg width="18" height="14" viewBox="0 0 18 14" fill="none" xmlns="http://www.w3.org/2000/svg">
<g id="Arrow - Left">
<path id="Stroke 1" d="M17.2501 7.00024C17.2501 7.37994 16.9679 7.69374 16.6019 7.7434L16.5001 7.75024L1.50009 7.75024C1.08588 7.75024 0.750092 7.41446 0.750092 7.00024C0.750092 6.62055 1.03225 6.30675 1.39832 6.25709L1.50009 6.25024L16.5001 6.25024C16.9143 6.25024 17.2501 6.58603 17.2501 7.00024Z" fill="#1F1F1F"/>
<path id="Stroke 3" d="M8.07908 12.4931C8.37261 12.7854 8.37363 13.2603 8.08137 13.5538C7.81567 13.8206 7.39906 13.8457 7.10498 13.6285L7.02071 13.5561L0.970709 7.53206C0.703073 7.26557 0.678726 6.84746 0.89768 6.55338L0.970665 6.46916L7.02067 0.444159C7.31416 0.151873 7.78904 0.152856 8.08132 0.446355C8.34704 0.713172 8.37038 1.12989 8.15192 1.42305L8.07913 1.50701L2.5631 7.00089L8.07908 12.4931Z" fill="#1F1F1F"/>
</g>
</svg>
