<svg width="20" height="21" viewBox="0 0 20 21" fill="none" xmlns="http://www.w3.org/2000/svg">
<g id="Bag">
<g id="Group 3">
<mask id="mask0_41_463" style="mask-type:luminance" maskUnits="userSpaceOnUse" x="-1" y="4" width="21" height="17">
<path id="Clip 2" fill-rule="evenodd" clip-rule="evenodd" d="M-0.000244141 4.54053H19.5856V20.7221H-0.000244141V4.54053Z" fill="white"/>
</mask>
<g mask="url(#mask0_41_463)">
<path id="Fill 1" fill-rule="evenodd" clip-rule="evenodd" d="M4.71526 6.04053C4.27426 6.04053 2.80026 6.21853 2.37726 8.50253L1.60526 14.5025C1.35426 16.1855 1.54826 17.4035 2.18326 18.1405C2.81026 18.8685 3.93226 19.2225 5.61226 19.2225H13.9603C15.0083 19.2225 16.4393 19.0135 17.3033 18.0155C17.9893 17.2245 18.2253 16.0465 18.0053 14.5135L17.2263 8.46153C16.8943 6.97053 16.0183 6.04053 14.8943 6.04053H4.71526ZM13.9603 20.7225H5.61226C3.46926 20.7225 1.97626 20.1975 1.04726 19.1185C0.114256 18.0365 -0.197744 16.4135 0.120256 14.2955L0.896256 8.26953C1.40626 5.50653 3.27126 4.54053 4.71526 4.54053H14.8943C16.3443 4.54053 18.1073 5.50353 18.7023 8.20453L19.4913 14.3115C19.7743 16.2825 19.4203 17.8635 18.4373 18.9975C17.4593 20.1255 15.9113 20.7225 13.9603 20.7225Z" fill="#1F1F1F"/>
</g>
</g>
<path id="Fill 4" fill-rule="evenodd" clip-rule="evenodd" d="M14.0976 5.82049C13.6836 5.82049 13.3476 5.48449 13.3476 5.07049C13.3476 3.10149 11.7456 1.50049 9.77756 1.50049H9.76256C8.82156 1.50049 7.90456 1.87949 7.23956 2.54049C6.57156 3.20549 6.18856 4.12849 6.18856 5.07049C6.18856 5.48449 5.85256 5.82049 5.43856 5.82049C5.02456 5.82049 4.68856 5.48449 4.68856 5.07049C4.68856 3.73149 5.23256 2.42249 6.18056 1.47749C7.12556 0.538488 8.42856 0.000488281 9.75956 0.000488281H9.78056C12.5736 0.000488281 14.8476 2.27449 14.8476 5.07049C14.8476 5.48449 14.5116 5.82049 14.0976 5.82049Z" fill="#1F1F1F"/>
<path id="Fill 6" fill-rule="evenodd" clip-rule="evenodd" d="M12.7429 10.3242H12.6969C12.2829 10.3242 11.9469 9.98822 11.9469 9.57422C11.9469 9.16022 12.2829 8.82422 12.6969 8.82422C13.1109 8.82422 13.4699 9.16022 13.4699 9.57422C13.4699 9.98822 13.1569 10.3242 12.7429 10.3242Z" fill="#1F1F1F"/>
<path id="Fill 8" fill-rule="evenodd" clip-rule="evenodd" d="M6.91187 10.3242H6.86687C6.45287 10.3242 6.11687 9.98822 6.11687 9.57422C6.11687 9.16022 6.45287 8.82422 6.86687 8.82422C7.28087 8.82422 7.63987 9.16022 7.63987 9.57422C7.63987 9.98822 7.32587 10.3242 6.91187 10.3242Z" fill="#1F1F1F"/>
</g>
</svg>
