<svg width="33" height="32" viewBox="0 0 33 32" fill="none" xmlns="http://www.w3.org/2000/svg">
<path id="Subtract" fill-rule="evenodd" clip-rule="evenodd" d="M26.9344 3.7245C27.8845 3.97907 28.6266 4.72115 28.8811 5.67121L32.4974 19.1672C32.7596 20.1458 32.4631 21.1894 31.7255 21.884L23.8747 29.2767L28.3938 7.96954H22.3935L19.6032 21.1239C19.3934 22.075 19.0368 22.9072 18.5332 23.6205C18.0437 24.3199 17.4283 24.8653 16.687 25.257C15.9597 25.6486 15.1415 25.8444 14.2324 25.8444C13.0016 25.8444 12.0714 25.5507 11.442 24.9632C10.8127 24.3618 10.498 23.4877 10.498 22.3408C10.498 22.103 10.5119 21.8163 10.5399 21.4806C10.5819 21.1309 10.6308 20.8162 10.6868 20.5365L13.3722 7.96954H7.37195L4.51869 21.5225C4.42078 21.9701 4.34386 22.4666 4.28791 23.0121C4.24595 23.5576 4.22497 24.0611 4.22497 24.5227C4.22497 25.7954 4.5047 26.9214 5.06417 27.9004C5.26722 28.2421 5.50008 28.5584 5.76275 28.8493L5.74261 28.8446C4.75347 28.6138 3.97175 27.8572 3.70887 26.8761L0.093871 13.3847C-0.160697 12.4347 0.110923 11.421 0.806415 10.7255L10.7255 0.806417C11.421 0.110925 12.4347 -0.160697 13.3847 0.0938707L26.9344 3.7245ZM13.6701 30.6941L18.9587 31.928C19.2509 31.9962 19.5523 32.0161 19.851 31.987L20.1924 31.9538C20.7992 31.8947 21.3692 31.6359 21.813 31.218L22.5512 30.5229H17.8409L18.5752 27.0612H18.4493C18.0437 27.8025 17.4773 28.4739 16.75 29.0753C16.0366 29.6767 15.2044 30.1523 14.2534 30.5019C14.0621 30.5733 13.8677 30.6373 13.6701 30.6941Z" fill="#1F1F1F"/>
</svg>
