<svg width="16" height="20" viewBox="0 0 16 20" fill="none" xmlns="http://www.w3.org/2000/svg">
<g id="Profile">
<g id="Group 6">
<g id="Union">
<path fill-rule="evenodd" clip-rule="evenodd" d="M7.88866 10.619H7.92066C10.8487 10.619 13.2297 8.238 13.2297 5.31C13.2297 2.382 10.8487 0 7.92066 0C4.99166 0 2.60966 2.382 2.60966 5.307C2.59966 8.227 4.96666 10.61 7.88866 10.619ZM4.03766 5.31C4.03766 3.169 5.77966 1.428 7.92066 1.428C10.0607 1.428 11.8017 3.169 11.8017 5.31C11.8017 7.45 10.0607 9.192 7.92066 9.192H7.89166C5.75966 9.184 4.03066 7.444 4.03766 5.31Z" fill="#1F1F1F"/>
<path fill-rule="evenodd" clip-rule="evenodd" d="M-0.000358582 16.1733C-0.000358582 19.8703 5.96164 19.8703 7.92064 19.8703C11.3196 19.8703 15.8396 19.4893 15.8396 16.1933C15.8396 12.4963 9.87964 12.4963 7.92064 12.4963C4.52064 12.4963 -0.000358582 12.8773 -0.000358582 16.1733ZM1.49964 16.1733C1.49964 14.7283 3.65964 13.9963 7.92064 13.9963C12.1806 13.9963 14.3396 14.7353 14.3396 16.1933C14.3396 17.6383 12.1806 18.3703 7.92064 18.3703C3.65964 18.3703 1.49964 17.6313 1.49964 16.1733Z" fill="#1F1F1F"/>
</g>
</g>
</g>
</svg>
